<svg height="512pt" viewBox="0 -16 512 512" width="512pt" xmlns="http://www.w3.org/2000/svg"><path style="fill:#F9D25B;" d="m320 480.003906c-6.921875 0-13.660156-2.246094-19.199219-6.398437l-162.128906-121.601563h-106.671875c-17.671875 0-32-14.328125-32-32v-160c0-17.675781 14.328125-32 32-32h106.671875l162.128906-121.601562c14.140625-10.605469 34.195313-7.738282 44.800781 6.398437 4.152344 5.539063 6.398438 12.277344 6.398438 19.203125v416c-.042969 17.65625-14.34375 31.957032-32 32zm-288-320v160h112c3.460938 0 6.832031 1.121094 9.601562 3.199219l166.398438 124.800781v-416l-166.398438 124.800782c-2.769531 2.074218-6.140624 3.199218-9.601562 3.199218zm0 0"/><path style="fill:#F9D25B;" d="m453.828125 357.828125c-8.839844-.003906-16-7.167969-16-16.003906.003906-4.242188 1.6875-8.308594 4.6875-11.308594 49.988281-49.988281 49.988281-131.03125.003906-181.019531-.003906-.003906-.003906-.003906-.003906-.003906-6.355469-6.140626-6.535156-16.269532-.394531-22.625 6.136718-6.355469 16.265625-6.53125 22.625-.394532.132812.128906.261718.261719.390625.394532 62.484375 62.484374 62.484375 163.789062 0 226.273437-3 3-7.066407 4.6875-11.308594 4.6875zm0 0"/><path style="fill:#F9D25B;" d="m408.578125 312.5625c-8.835937 0-16-7.164062-15.996094-16.003906 0-4.242188 1.683594-8.308594 4.683594-11.308594 24.984375-24.992188 24.984375-65.503906 0-90.496094-6.136719-6.355468-5.960937-16.484375.394531-22.625 6.199219-5.988281 16.027344-5.988281 22.230469 0 37.476563 37.488282 37.476563 98.257813 0 135.746094-3 3-7.070313 4.6875-11.3125 4.6875zm0 0"/></svg>
