<svg height="511pt" viewBox="0 -14 511.99986 511" width="511pt" xmlns="http://www.w3.org/2000/svg"><path style="fill:#F9D25B;" d="m336.242188 3.945312c-10.890626-5.519531-23.976563-4.335937-33.699219 3.042969l-163.066407 122.304688h-107.292968c-17.773438 0-32.183594 14.410156-32.183594 32.183593v160.925782c0 17.777344 14.410156 32.1875 32.183594 32.1875h107.292968l163.066407 122.304687c14.21875 10.664063 34.394531 7.78125 45.058593-6.4375 4.179688-5.570312 6.4375-12.347656 6.4375-19.3125v-418.410156c.042969-12.203125-6.863281-23.371094-17.796874-28.789063zm-14.386719 447.199219-167.367188-125.523437c-2.785156-2.089844-6.171875-3.21875-9.65625-3.21875h-112.648437v-160.925782h112.648437c3.484375 0 6.871094-1.128906 9.65625-3.21875l167.363281-125.523437v418.410156zm0 0"/><path style="fill:#F9D25B;" d="m473.351562 241.941406 34.132813-34.132812c6.171875-6.394532 5.996094-16.582032-.398437-22.757813-6.234376-6.019531-16.121094-6.019531-22.359376 0l-34.132812 34.132813-34.132812-34.132813c-6.390626-6.171875-16.578126-5.996093-22.753907.398438-6.023437 6.234375-6.023437 16.121093 0 22.359375l34.132813 34.132812-34.132813 34.132813c-6.390625 6.171875-6.570312 16.359375-.394531 22.753906 6.175781 6.390625 16.363281 6.570313 22.753906.394531.136719-.128906.265625-.261718.394532-.394531l34.132812-34.132813 34.132812 34.132813c6.394532 6.171875 16.582032 5.996094 22.757813-.398437 6.019531-6.234376 6.019531-16.121094 0-22.355469zm0 0"/></svg>
