<svg height="511pt" viewBox="1 -101 511.99998 511" width="511pt" xmlns="http://www.w3.org/2000/svg"><path d="m420.828125 196.234375c0 34.136719-27.671875 61.8125-61.808594 61.8125s-61.8125-27.675781-61.8125-61.8125 27.675781-61.8125 61.8125-61.8125 61.808594 27.675781 61.808594 61.8125zm0 0" fill="#ff5368"/><path d="m366.460938 134.886719c.292968 2.441406.460937 4.921875.460937 7.441406 0 34.140625-27.671875 61.8125-61.808594 61.8125-2.519531 0-5.003906-.167969-7.445312-.460937 3.679687 30.625 29.734375 54.367187 61.351562 54.367187 34.136719 0 61.808594-27.675781 61.808594-61.8125 0-31.617187-23.742187-57.671875-54.367187-61.347656zm0 0" fill="#c5324f"/><path d="m503.085938 285.394531c-12.097657-5.816406-20.445313-18.179687-20.445313-32.5 0-13.65625 6.972656-21.109375 10.246094-25.753906l-195.679688-17.019531v-65.394532c0-5.691406-4.613281-10.304687-10.300781-10.304687h-51.511719c0-35.921875 0-70.359375 0-72.109375h-41.207031v-30.90625c0-5.691406-4.609375-10.300781-10.300781-10.300781h-10.300781c-5.691407 0-10.300782 4.609375-10.300782 10.300781v30.90625h-41.207031v-51.511719c0-5.6875-4.613281-10.300781-10.304687-10.300781-3.726563 0-6.574219 0-10.300782 0-5.691406 0-10.300781 4.613281-10.300781 10.300781v51.511719h-41.207031v147.808594l-35.53125 17.019531c18.648437 37.796875 43.835937 51.710937 79 76.699219 5.230468 3.71875 11.484375 5.714844 17.902344 5.714844h390.363281c5.6875 0 10.300781-4.613282 10.300781-10.300782v-.011718c0-5.964844-3.539062-11.261719-8.914062-13.847657zm0 0" fill="#e9e3d5"/><path d="m204.492188 206.535156h92.714843v-61.808594c0-5.691406-4.613281-10.304687-10.300781-10.304687h-20.605469v30.90625h-30.90625c0-28.148437 0-61.441406 0-82.414063 5.691407 0 10.304688-4.613281 10.304688-10.300781v-10.300781c0-.710938-.074219-1.40625-.210938-2.078125-.273437-1.339844-.808593-2.589844-1.550781-3.683594-1.851562-2.742187-4.984375-4.542969-8.542969-4.542969-7.210937 0-177.851562 0-185.429687 0-5.691406 0-10.304688 4.613282-10.304688 10.300782v10.304687c0 5.6875 4.613282 10.300781 10.304688 10.300781h154.527344zm0 0" fill="#d3cdbf"/><path d="m503.085938 285.394531c-12.097657-5.816406-20.445313-18.179687-20.445313-32.5 0-13.65625 6.972656-21.109375 10.246094-25.753906l-34.628907-3.011719c-3.5 7.261719-6.523437 16.847656-6.523437 28.765625 0 8.972657 1.832031 17.707031 5.210937 25.753907h-398.921874c10.53125 8.066406 22.273437 15.855468 35.410156 25.191406 5.230468 3.71875 11.484375 5.714844 17.902344 5.714844h390.363281c5.6875 0 10.300781-4.613282 10.300781-10.300782v-.011718c0-5.964844-3.539062-11.261719-8.914062-13.847657zm0 0" fill="#d3cdbf"/><path d="m501.699219 155.027344c-6.988281 0-63.007813 0-70.03125 0-7.015625 0-13.824219 2.386718-19.304688 6.773437l-34.578125 27.660157c-5.480468 4.386718-12.289062 6.773437-19.308594 6.773437h-120.582031c-8.195312 0-16.054687-3.257813-21.851562-9.050781l-23.101563-23.105469c-5.796875-5.792969-13.660156-9.050781-21.855468-9.050781-5.605469 0-149.433594 0-160.785157 0-5.6875 0-10.300781 4.613281-10.300781 10.300781 0 21.75 5.074219 42.847656 14.433594 61.8125h478.453125c12.089843-17.167969 19.113281-37.382813 19.113281-58.445313v-3.367187c0-5.6875-4.613281-10.300781-10.300781-10.300781zm0 0" fill="#ff5368"/><path d="m512 165.328125c0-5.6875-4.613281-10.300781-10.300781-10.300781-2.402344 0-10.597657 0-20.605469 0v13.667968c0 14.074219-4.660156 28.132813-13.46875 40.636719-.246094.351563-.535156.726563-.835938 1.136719-2.414062 3.230469-6.558593 8.789062-9.890624 16.671875h35.988281c12.089843-17.167969 19.113281-37.382813 19.113281-58.445313zm0 0" fill="#c5324f"/><g fill="#456ea2"><path d="m204.492188 106.09375h-21.378907c-4.265625 0-7.726562 3.460938-7.726562 7.726562v10.300782c0 4.269531 3.460937 7.726562 7.726562 7.726562h21.378907c4.265624 0 7.726562-3.457031 7.726562-7.726562v-10.300782c0-4.265624-3.460938-7.726562-7.726562-7.726562zm0 0"/><path d="m102.246094 106.09375h-21.375c-4.269532 0-7.726563 3.460938-7.726563 7.726562v10.300782c0 4.269531 3.457031 7.726562 7.726563 7.726562h21.375c4.265625 0 7.726562-3.457031 7.726562-7.726562v-10.300782c0-4.265624-3.460937-7.726562-7.726562-7.726562zm0 0"/><path d="m152.210938 106.09375h-19.058594c-4.269532 0-7.726563 3.460938-7.726563 7.726562v10.300782c0 4.269531 3.457031 7.726562 7.726563 7.726562h19.058594c4.265624 0 7.726562-3.457031 7.726562-7.726562v-10.300782c0-4.265624-3.460938-7.726562-7.726562-7.726562zm0 0"/></g></svg>