<?xml version="1.0" encoding="iso-8859-1"?>
<!-- Generator: Adobe Illustrator 18.0.0, SVG Export Plug-In . SVG Version: 6.00 Build 0)  -->
<!DOCTYPE svg PUBLIC "-//W3C//DTD SVG 1.1//EN" "http://www.w3.org/Graphics/SVG/1.1/DTD/svg11.dtd">
<svg version="1.1" id="Capa_1" xmlns="http://www.w3.org/2000/svg" xmlns:xlink="http://www.w3.org/1999/xlink" x="0px" y="0px"
	 viewBox="0 0 464.302 464.302" style="enable-background:new 0 0 464.302 464.302;" xml:space="preserve">
<g>
	<path style="fill:#45BDDD;" d="M176.737,224.458c0,0-18.797-8.039-42.796-2.039l-5.222,19.41l60.719,16.588L176.737,224.458z"/>
	<path style="fill:#45BDDD;" d="M120.777,270.906c0,0-43.884-50.468-120.777-67.469l23.624,43.31
		c3.922,7.19,10.783,12.307,18.796,14.001c0.171,0.036,0.343,0.073,0.516,0.11c11.414,2.433,11.414,18.704,0,21.137
		c-0.173,0.037-0.346,0.074-0.516,0.11c-8.012,1.694-14.874,6.811-18.796,14.001L0,339.415c76.893-17,120.777-67.469,120.777-67.469
		l-0.669-0.52L120.777,270.906z"/>
	<path style="fill:#51CAF4;" d="M464.302,271.433c-18.85,12.81-38.64,23.56-59.08,32.25c-6.41,2.73-12.89,5.25-19.43,7.57
		c-9.59,3.41-19.29,6.38-29.09,8.91c-28.42,7.36-57.57,11.03-86.71,11.03c-46.02,0-92.05-9.17-135.2-27.51
		c-13.76-5.85-27.22-12.63-40.3-20.34c-9.06-5.34-9.16-18.42-0.11-23.76c80.12-47.29,174.7-59.58,262.33-36.89
		c9.79,2.53,19.5,5.51,29.09,8.92c21.23,7.55,41.88,17.23,61.64,29.05l-5.04,2.91c-6.06,3.5-8.13,11.25-4.64,17.31l21.83-12.6
		C461.172,269.323,462.742,270.373,464.302,271.433z"/>
	<path style="fill:#7FDEF7;" d="M464.302,271.433c-18.85,12.81-38.64,23.56-59.08,32.25c-6.41,2.73-12.89,5.25-19.43,7.57
		c-6.08-11.96-9.5-25.49-9.5-39.82s3.42-27.86,9.51-39.82c21.23,7.55,41.88,17.23,61.64,29.05l-5.04,2.91
		c-6.06,3.5-8.13,11.25-4.64,17.31l21.83-12.6C461.172,269.323,462.742,270.373,464.302,271.433z"/>
	<path style="fill:#7FDEF7;" d="M405.222,303.683c-15.83,6.73-32.05,12.22-48.52,16.48c-28.42,7.36-57.57,11.03-86.71,11.03
		c-46.02,0-92.05-9.17-135.2-27.51c70.48-29.98,148.63-35.47,221.92-16.49C373.172,291.453,389.392,296.943,405.222,303.683z"/>
	<g>
		<circle style="fill:#FFFFFF;" cx="407.067" cy="271.426" r="20.488"/>
		<circle style="fill:#4D4D4D;" cx="407.067" cy="271.426" r="12.535"/>
	</g>
	<path style="fill:#45BDDD;" d="M319.996,225.042c0,0-83.685-96.241-230.317-128.66l45.049,82.59
		c7.491,13.733,20.62,23.479,35.925,26.716c23.732,5.02,61.594,14.518,96.549,29.745c15.64,6.813,33.77,4.404,47.236-6.07
		L319.996,225.042z"/>
	<path style="fill:#45BDDD;" d="M253.572,300.451c0,0-43.884,50.469-120.777,67.469l23.624-43.31
		c3.928-7.202,10.813-12.312,18.839-14.01c12.445-2.632,32.3-7.613,50.63-15.598c8.201-3.573,17.709-2.309,24.77,3.183
		L253.572,300.451z"/>
</g>
<g>
</g>
<g>
</g>
<g>
</g>
<g>
</g>
<g>
</g>
<g>
</g>
<g>
</g>
<g>
</g>
<g>
</g>
<g>
</g>
<g>
</g>
<g>
</g>
<g>
</g>
<g>
</g>
<g>
</g>
</svg>
