<?xml version="1.0" encoding="iso-8859-1"?>
<!-- Generator: Adobe Illustrator 18.0.0, SVG Export Plug-In . SVG Version: 6.00 Build 0)  -->
<!DOCTYPE svg PUBLIC "-//W3C//DTD SVG 1.1//EN" "http://www.w3.org/Graphics/SVG/1.1/DTD/svg11.dtd">
<svg version="1.1" id="Capa_1" xmlns="http://www.w3.org/2000/svg" xmlns:xlink="http://www.w3.org/1999/xlink" x="0px" y="0px"
	 viewBox="0 0 446.257 446.257" style="enable-background:new 0 0 446.257 446.257;" xml:space="preserve">
<g>
	<path style="fill:#808080;" d="M275.856,280.432L275.856,280.432c0-7.7,6.242-13.942,13.942-13.942h156.36
		c0.059-0.773,0.099-1.551,0.099-2.339V158.148c0-24.007-19.462-43.469-43.469-43.469H300.085
		c-40.066,0-79.261,11.692-112.779,33.642L63.63,229.312l0,0c0,35.933,29.129,65.062,65.062,65.062h37.178h250.164
		c10.695,0,20.085-5.56,25.457-13.942H275.856z"/>
	<path style="fill:#4D4D4D;" d="M254.944,277.068c-2.035,0-4.038-0.827-5.475-2.272c-0.361-0.351-0.681-0.754-0.97-1.178
		c-0.279-0.413-0.516-0.867-0.713-1.332c-0.186-0.465-0.341-0.961-0.434-1.446c-0.103-0.506-0.154-1.012-0.154-1.518
		c0-0.506,0.051-1.012,0.154-1.508c0.093-0.496,0.248-0.991,0.434-1.456c0.197-0.465,0.434-0.919,0.713-1.332
		c0.289-0.424,0.609-0.826,0.97-1.178c1.436-1.446,3.439-2.272,5.475-2.272c2.044,0,4.038,0.826,5.474,2.272
		c0.361,0.352,0.682,0.754,0.97,1.178c0.279,0.413,0.516,0.867,0.713,1.332c0.186,0.465,0.341,0.961,0.434,1.456
		c0.103,0.496,0.155,1.001,0.155,1.508c0,0.506-0.052,1.012-0.155,1.518c-0.093,0.486-0.248,0.981-0.434,1.446
		c-0.197,0.464-0.434,0.919-0.713,1.332c-0.288,0.424-0.609,0.827-0.97,1.178c-0.351,0.362-0.743,0.682-1.177,0.971
		c-0.414,0.279-0.868,0.516-1.332,0.713c-0.465,0.186-0.961,0.341-1.446,0.434C255.955,277.016,255.449,277.068,254.944,277.068z"/>
	<path style="fill:#808080;" d="M138.01,331.577L138.01,331.577L138.01,331.577c0-29.75,24.117-53.868,53.867-53.868h0v0
		C191.877,307.46,167.76,331.577,138.01,331.577z"/>
	<g>
		<path style="fill:#808080;" d="M70.346,233.803L70.346,233.803l-13.399-13.399c-15.725-15.725-15.725-41.221,0-56.947l0,0
			l13.399,13.399C86.071,192.581,86.071,218.077,70.346,233.803z"/>
		<path style="fill:#808080;" d="M70.346,233.803L70.346,233.803l-13.399-13.399c-15.725-15.725-41.221-15.725-56.947,0l0,0
			l13.399,13.399C29.125,249.528,54.621,249.528,70.346,233.803z"/>
	</g>
</g>
<g>
</g>
<g>
</g>
<g>
</g>
<g>
</g>
<g>
</g>
<g>
</g>
<g>
</g>
<g>
</g>
<g>
</g>
<g>
</g>
<g>
</g>
<g>
</g>
<g>
</g>
<g>
</g>
<g>
</g>
</svg>
