<?xml version="1.0" encoding="iso-8859-1"?>
<!-- Generator: Adobe Illustrator 19.0.0, SVG Export Plug-In . SVG Version: 6.00 Build 0)  -->
<svg version="1.1" id="Capa_1" xmlns="http://www.w3.org/2000/svg" xmlns:xlink="http://www.w3.org/1999/xlink" x="0px" y="0px"
	 viewBox="0 0 512 512" style="enable-background:new 0 0 512 512;" xml:space="preserve">
<polygon style="fill:#605D9C;" points="87.992,302.766 87.992,394.935 62.016,445.16 1.625,445.16 18.228,348.845 1.625,252.531 
	62.016,252.531 "/>
<g>
	<path style="fill:#393B85;" d="M78.641,356.654H7.812c-4.315,0-7.812-3.498-7.812-7.812s3.497-7.812,7.812-7.812h70.829
		c4.315,0,7.812,3.498,7.812,7.812S82.956,356.654,78.641,356.654z"/>
	<path style="fill:#393B85;" d="M217.556,146.011c-4.315,0-7.812-3.498-7.812-7.812V53.059c0-4.314,3.497-7.812,7.812-7.812
		s7.812,3.498,7.812,7.812V138.2C225.368,142.514,221.872,146.011,217.556,146.011z"/>
	<path style="fill:#393B85;" d="M250.77,146.011c-4.315,0-7.812-3.498-7.812-7.812V71.325c0-4.314,3.497-7.812,7.812-7.812
		s7.812,3.498,7.812,7.812v66.873C258.582,142.514,255.084,146.011,250.77,146.011z"/>
</g>
<path style="fill:#605D9C;" d="M324.516,262.269l-16.852-109.284c-2.338-14.524-14.874-25.202-29.584-25.202h-71.887
	c-14.786,0-27.362,10.786-29.615,25.4l-12.693,82.348"/>
<path style="fill:#393B85;" d="M220.922,127.779c-8.708,0-16.124,10.791-17.446,25.404l-7.395,81.399l-32.195,0.948l12.686-82.347
	c2.25-14.613,14.832-25.404,29.612-25.404C206.183,127.779,220.922,127.779,220.922,127.779z"/>
<path style="fill:#FFE563;" d="M512,348.845c0,37.028-17.071,70.067-43.767,91.669c-4.291,3.489-8.822,6.666-13.582,9.51
	c-17.696,10.624-38.413,16.728-60.557,16.728H196.548c-4.437,0-8.822-0.25-13.124-0.729c-27.321-3.021-51.818-15.374-70.244-33.81
	c-21.342-21.332-34.539-50.808-34.539-83.368c0-65.119,52.787-117.907,117.907-117.907h197.546c22.144,0,42.861,6.104,60.557,16.728
	c4.76,2.844,9.291,6.031,13.582,9.51c3.218,2.604,6.302,5.375,9.228,8.301C498.803,286.809,512,316.285,512,348.845z"/>
<path style="fill:#88C9DB;" d="M512,348.845c0,11.02-1.51,21.686-4.343,31.799c-7.426,26.591-23.935,49.381-45.975,64.817
	c-5.656-3.937-10.937-8.385-15.79-13.238c-20.654-20.654-33.674-48.923-34.497-80.233c-0.031-1.042-0.042-2.094-0.042-3.146
	c0-39.976,19.905-75.296,50.329-96.617c5.645,3.948,10.926,8.385,15.79,13.249C498.803,286.809,512,316.285,512,348.845z"/>
<path style="fill:#56A0BF;" d="M507.657,380.645c-7.426,26.591-23.935,49.381-45.975,64.817c-5.656-3.937-10.937-8.385-15.79-13.238
	c-20.654-20.654-33.674-48.923-34.497-80.233l7.77-3.146c0,26.956,44.548,58.547,88.482,31.81
	C507.646,380.655,507.657,380.655,507.657,380.645z"/>
<g>
	<path style="fill:#FFC745;" d="M462.493,444.88c-19.29,13.77-42.903,21.873-68.411,21.873H196.547
		c-32.56,0-62.036-13.197-83.368-34.539c-21.342-21.332-34.539-50.808-34.539-83.368c0-65.119,52.787-117.907,117.907-117.907h1.875
		c-29.966,21.373-49.496,56.422-49.496,96.033c0,32.56,13.197,62.036,34.539,83.368c21.332,21.342,50.808,34.539,83.368,34.539
		H462.493z"/>
	<path style="fill:#FFC745;" d="M466.15,439.056l2.083,1.458c-4.291,3.489-8.822,6.666-13.582,9.51
		c-5.031-3.698-9.832-7.822-14.29-12.28c-23.738-23.738-36.82-55.318-36.82-88.899c0-39.924,19.05-77.514,51.11-101.179
		c4.76,2.843,9.291,6.031,13.582,9.51l-2.073,1.458c-29.425,20.613-46.996,54.329-46.996,90.211
		c0,29.414,11.457,57.058,32.247,77.858C455.973,431.255,460.93,435.411,466.15,439.056z"/>
</g>
<g>
	<circle style="fill:#88C9DB;" cx="193.661" cy="315.015" r="34.873"/>
	<circle style="fill:#88C9DB;" cx="302.589" cy="315.015" r="34.873"/>
</g>
<g>
	<path style="fill:#FFC745;" d="M193.656,357.697c-23.538,0-42.685-19.148-42.685-42.685c0-23.537,19.148-42.685,42.685-42.685
		s42.685,19.148,42.685,42.685C236.341,338.548,217.193,357.697,193.656,357.697z M193.656,287.949
		c-14.922,0-27.061,12.14-27.061,27.061s12.14,27.061,27.061,27.061s27.061-12.14,27.061-27.061S208.578,287.949,193.656,287.949z"
		/>
	<path style="fill:#FFC745;" d="M302.587,357.697c-23.538,0-42.685-19.148-42.685-42.685c0-23.537,19.148-42.685,42.685-42.685
		c23.537,0,42.685,19.148,42.685,42.685C345.272,338.548,326.123,357.697,302.587,357.697z M302.587,287.949
		c-14.922,0-27.061,12.14-27.061,27.061s12.14,27.061,27.061,27.061s27.061-12.14,27.061-27.061S317.508,287.949,302.587,287.949z"
		/>
	<path style="fill:#FFC745;" d="M384.959,230.939V339.19c0,33.07-26.904,59.974-59.974,59.974h-88.659
		c-20.561,0-37.278,16.717-37.278,37.278v30.31h-2.5c-4.437,0-8.822-0.25-13.124-0.729v-29.581
		c0-29.175,23.727-52.902,52.902-52.902h88.659c24.456,0,44.35-19.894,44.35-44.35V230.939H384.959z"/>
</g>
<g>
	<ellipse style="fill:#ACD0DD;" cx="479.709" cy="310.182" rx="10.416" ry="15.624"/>
	<ellipse style="fill:#ACD0DD;" cx="308.817" cy="315.015" rx="10.416" ry="15.624"/>
	<ellipse style="fill:#ACD0DD;" cx="203.17" cy="315.015" rx="10.416" ry="15.624"/>
</g>
<g>
</g>
<g>
</g>
<g>
</g>
<g>
</g>
<g>
</g>
<g>
</g>
<g>
</g>
<g>
</g>
<g>
</g>
<g>
</g>
<g>
</g>
<g>
</g>
<g>
</g>
<g>
</g>
<g>
</g>
</svg>
