<?xml version="1.0" encoding="iso-8859-1"?>
<!-- Generator: Adobe Illustrator 19.0.0, SVG Export Plug-In . SVG Version: 6.00 Build 0)  -->
<svg version="1.1" id="Capa_1" xmlns="http://www.w3.org/2000/svg" xmlns:xlink="http://www.w3.org/1999/xlink" x="0px" y="0px"
	 viewBox="0 0 512 512" style="enable-background:new 0 0 512 512;" xml:space="preserve">
<path style="fill:#B8B7AC;" d="M92.956,370.871c-19.907,0-36.103-16.197-36.103-36.103l-9.846-6.564l-9.846,6.564
	c0,30.765,25.029,55.795,55.795,55.795h59.077v-19.692H92.956z"/>
<path style="fill:#D9B43A;" d="M191.418,341.333c-36.252,0-65.641,29.388-65.641,65.641v39.385h131.282V341.333H191.418z"/>
<path style="fill:#BB9430;" d="M388.341,406.974c0-36.252-29.388-65.641-65.641-65.641h-65.641v105.026h131.282V406.974z"/>
<path style="fill:#706B63;" d="M177.717,375.881c-35.323,20.634-61.883,54.622-72.773,95.039
	C149.615,497.025,201.585,512,257.059,512l39.385-136.119L177.717,375.881L177.717,375.881z"/>
<g>
	<path style="fill:#5B5751;" d="M409.173,470.92c-7.963-29.554-24.313-55.663-46.333-75.635l0,0
		c-8.093-7.341-16.947-13.859-26.441-19.405h-79.341h-79.341c-9.534,5.569-18.424,12.12-26.546,19.5
		c18.539,10.574,38.784,18.406,60.201,23.083l3.114,0.681h0.459c5.777,1.155,11.613,2.056,17.481,2.73
		c0.081,0.009,0.163,0.019,0.243,0.028c13.85,1.575,24.389,13.146,24.389,27.084V512C312.532,512,364.502,497.025,409.173,470.92z"
		/>
	<path style="fill:#5B5751;" d="M141.163,488.932c10.347,4.307,20.985,8.057,31.876,11.208v-42.9c0-0.083,0-0.167,0-0.25
		c-0.029-9.696-12.987-13.117-17.904-4.759C148.556,463.417,143.766,475.78,141.163,488.932z"/>
</g>
<g>
	<path style="fill:#47423F;" d="M372.974,488.934c-10.347,4.307-20.985,8.057-31.876,11.208v-42.9c0-0.083,0-0.167,0-0.25
		c0.029-9.696,12.987-13.117,17.904-4.759C365.58,463.419,370.37,475.782,372.974,488.934z"/>
	<path style="fill:#47423F;" d="M460.381,207.359c-0.074-27.776-11.954-53.905-31.811-73.328c-2.293-2.243-4.134-4.675-5.229-7.276
		C393.921,56.858,330.524,0,257.059,0l-91.897,188.389l91.897,205.36c0.335-0.002,0.668-0.01,1.002-0.012l-1.002,0.108
		c13.52,0,26.696-1.469,39.385-4.24l-1.289,0.139c0.224-0.047,0.448-0.091,0.671-0.139h0.618
		c55.161-12.046,101.061-48.861,125.458-98.208c1.061-2.146,2.719-4.162,4.763-6.036c21.272-19.512,33.801-46.752,33.724-75.616
		L460.381,207.359z"/>
</g>
<path style="fill:#5B5751;" d="M90.776,126.755c-1.095,2.6-2.936,5.033-5.229,7.276c-19.856,19.423-31.737,45.553-31.811,73.328
	l-0.005,1.999c-0.077,29.025,11.665,57.166,33.399,76.403c2.505,2.218,4.564,4.628,5.872,7.211
	c24.589,48.554,70.097,84.717,124.67,96.634h0.306c12.546,2.71,25.565,4.145,38.923,4.145c0.053,0,0.104-0.002,0.157-0.002V0
	C183.593,0,120.196,56.858,90.776,126.755z"/>
<path style="fill:#ECCE93;" d="M136.083,288.821c25.8,39.489,70.388,65.641,120.976,65.641s95.176-26.152,120.976-65.641
	l-120.976-52.512L136.083,288.821z"/>
<path style="fill:#E1B872;" d="M401.469,210.051c0-30.651-9.663-63.477-26.601-92.175c-9.413-15.949-26.624-25.669-45.145-25.669
	H184.394c-18.52,0-35.732,9.72-45.145,25.669c-16.938,28.7-26.601,61.525-26.601,92.175c0,29.041,8.624,56.101,23.435,78.77h241.951
	C392.845,266.151,401.469,239.092,401.469,210.051z"/>
<polygon style="fill:#5B5751;" points="270.187,203.488 257.059,203.488 243.93,236.463 257.059,256 322.7,256 "/>
<polygon style="fill:#706B63;" points="243.93,203.488 191.418,256 257.059,256 257.059,203.488 "/>
<path style="fill:#47423F;" d="M320.784,256c-26.569,0-50.457-14.762-62.339-38.528c-0.264-0.528-0.795-0.856-1.386-0.856
	c-0.591,0-1.122,0.329-1.386,0.856C243.79,241.237,219.902,256,193.333,256H145.6c-18.81,0-36.767-8.065-49.266-22.128
	c-12.379-13.928-18.229-32.486-16.052-50.914c0.106-0.898,0.223-1.714,0.342-2.426c2.19-13.058,5.781-26.205,10.673-39.072
	c6.725-17.682,23.981-29.561,42.94-29.561h245.644c18.959,0,36.215,11.879,42.939,29.56c4.892,12.868,8.484,26.015,10.675,39.078
	c0.118,0.704,0.235,1.521,0.342,2.429c2.177,18.42-3.674,36.977-16.052,50.905C405.284,247.935,387.326,256,368.516,256H320.784z"/>
<path style="fill:#6A9093;" d="M414.279,185.269c-0.065-0.55-0.134-1.043-0.206-1.474c-1.985-11.835-5.246-23.725-9.66-35.336
	c-3.867-10.17-13.652-16.868-24.533-16.868H259.717L155,236.308h38.333c18.941,0,36.256-10.702,44.726-27.642l0,0
	c3.598-7.197,10.954-11.742,19-11.742c8.046,0,15.401,4.546,19,11.742l0,0c8.47,16.941,25.785,27.642,44.726,27.642h47.733
	C395.922,236.308,417.495,212.484,414.279,185.269z"/>
<path style="fill:#92BCBC;" d="M134.237,131.591c-10.88,0-20.665,6.698-24.532,16.868c-4.415,11.611-7.675,23.502-9.66,35.336
	c-0.072,0.431-0.141,0.924-0.206,1.474c-3.216,27.216,18.357,51.039,45.762,51.039H155l104.717-104.717h-125.48V131.591z"/>
<path style="fill:#C6DCD1;" d="M259.717,131.591h-64.982l-86.153,86.153c8.374,11.203,21.791,18.564,37.017,18.564h9.399h38.333
	c18.941,0,36.256-10.702,44.726-27.642l0,0c3.598-7.197,10.954-11.742,19-11.742c0.735,0,1.461,0.05,2.182,0.125l65.458-65.457
	h-64.981V131.591z"/>
<path style="fill:#B8B7AC;" d="M92.956,278.974c-30.765,0-55.795,25.029-55.795,55.795h19.692c0-19.906,16.195-36.103,36.103-36.103
	h124.718v-19.692L92.956,278.974L92.956,278.974z"/>
<path style="fill:#706B63;" d="M265.537,331.488h-16.959c-17.069,0-30.905-13.836-30.905-30.905v-16.959
	c0-17.069,13.836-30.905,30.905-30.905h16.959c17.069,0,30.905,13.836,30.905,30.905v16.959
	C296.443,317.65,282.606,331.488,265.537,331.488z"/>
<path style="fill:#47423F;" d="M257.059,341.333c-27.146,0-49.23-22.085-49.23-49.23c0-27.145,22.085-49.23,49.23-49.23
	c27.146,0,49.23,22.085,49.23,49.23C306.289,319.248,284.205,341.333,257.059,341.333z M257.059,262.564
	c-16.288,0-29.538,13.251-29.538,29.538c0,16.287,13.25,29.538,29.538,29.538c16.288,0,29.538-13.251,29.538-29.538
	C286.597,275.816,273.346,262.564,257.059,262.564z"/>
<path style="fill:#91928F;" d="M435.454,42.667v161.808c0,37.519-30.415,67.934-67.934,67.934H257.63
	c-10.591,0-19.718,8.123-20.239,18.702c-0.557,11.307,8.481,20.683,19.668,20.683h110.46c59.271,0,107.32-48.049,107.32-107.32
	V42.667c0-5.438-4.408-9.846-9.846-9.846h-19.692C439.863,32.821,435.454,37.229,435.454,42.667z"/>
<path style="fill:#B8B7AC;" d="M435.454,42.667v161.808c0,37.519-30.415,67.934-67.934,67.934H257.059
	c-7.273,0-13.622,3.973-17.032,9.853c3.408,5.876,9.751,9.839,17.032,9.839h110.46c48.396,0,87.627-39.232,87.627-87.627V32.821
	H445.3C439.863,32.821,435.454,37.229,435.454,42.667z"/>
<g>
</g>
<g>
</g>
<g>
</g>
<g>
</g>
<g>
</g>
<g>
</g>
<g>
</g>
<g>
</g>
<g>
</g>
<g>
</g>
<g>
</g>
<g>
</g>
<g>
</g>
<g>
</g>
<g>
</g>
</svg>
