<?xml version="1.0" encoding="iso-8859-1"?>
<!-- Generator: Adobe Illustrator 19.0.0, SVG Export Plug-In . SVG Version: 6.00 Build 0)  -->
<svg version="1.1" id="Layer_1" xmlns="http://www.w3.org/2000/svg" xmlns:xlink="http://www.w3.org/1999/xlink" x="0px" y="0px"
	 viewBox="0 0 511.999 511.999" style="enable-background:new 0 0 511.999 511.999;" xml:space="preserve">
<path style="fill:#77D7ED;" d="M511.997,255.406c0.143,64.93-23.883,124.265-63.632,169.488
	c-8.582,9.772-17.908,18.887-27.868,27.248c-1.733,1.454-3.487,2.898-5.263,4.296c-4.042,3.231-8.182,6.331-12.423,9.294
	c-39.341,27.601-86.827,44.412-138.145,46.122c-2.677,0.088-5.375,0.133-8.073,0.143c-2.842,0.01-5.663-0.033-8.482-0.121
	c-51.585-1.556-99.362-18.4-138.921-46.145c-3.942-2.765-7.817-5.651-11.591-8.627c-1.778-1.4-3.533-2.832-5.275-4.275
	c-9.972-8.295-19.308-17.344-27.913-27.048C24.462,380.736,0.148,321.513,0.002,256.582C-0.322,115.195,114.029,0.322,255.416,0.001
	C396.791-0.322,511.675,114.019,511.997,255.406"/>
<path style="fill:#F0A037;" d="M415.233,305.292v151.146c-4.042,3.231-8.182,6.331-12.423,9.294H109.188
	c-3.942-2.765-7.817-5.651-11.591-8.627V305.292c0-22.596,18.307-40.903,40.892-40.903h235.842
	C396.911,264.389,415.233,282.696,415.233,305.292"/>
<path style="fill:#68635B;" d="M420.496,452.14c-10.959,9.204-22.695,17.51-35.108,24.793c-16,9.393-33.098,17.088-51.074,22.872
	c-21.873,7.017-45.034,11.17-69.028,12.025c-0.211,0.011-0.411,0.011-0.622,0.022c-2.676,0.089-5.375,0.133-8.073,0.144
	c-2.842,0.011-5.664-0.033-8.483-0.122c-0.201-0.011-0.39-0.011-0.588-0.022c-23.984-0.777-47.133-4.852-69.017-11.803
	c-17.965-5.707-35.075-13.335-51.074-22.661c-2.21-1.277-4.386-2.587-6.54-3.931c-10.004-6.218-19.553-13.124-28.568-20.63
	c10.67-11.003,22.428-20.929,35.108-29.612c15.468-10.615,32.299-19.364,50.186-25.937c8.537-3.153,17.321-5.807,26.313-7.928
	c8.617-2.032,17.411-3.575,26.37-4.597c5.875-0.688,11.804-1.132,17.811-1.355c2.687-0.111,5.385-0.155,8.105-0.167
	c2.831-0.011,5.651,0.033,8.449,0.144c24.748,0.833,48.508,5.607,70.67,13.701c17.82,6.506,34.608,15.167,50.053,25.67
	C398.057,431.367,409.826,441.226,420.496,452.14z"/>
<g>
	<path style="fill:#545049;" d="M230.301,384.758l-11.947,14.645c0,0-63.077,25.726-97.462,74.058
		c-10.005-6.218-19.553-13.124-28.568-20.63c29.878-30.822,68.373-53.273,111.608-63.477
		C212.548,387.322,221.342,385.779,230.301,384.758z"/>
	<path style="fill:#545049;" d="M265.286,393.938v117.893c-0.211,0.011-0.411,0.011-0.622,0.022
		c-2.676,0.089-5.375,0.133-8.073,0.144c-2.842,0.011-5.664-0.033-8.483-0.122c-0.201-0.011-0.39-0.011-0.588-0.022V393.938H265.286
		z"/>
</g>
<g>
	<path style="fill:#E0B775;" d="M385.074,248.225c0-10.59-6.462-19.175-14.434-19.175c-7.971,0-14.433,8.585-14.433,19.175
		c0,10.589,6.463,11.956,14.433,11.956C378.612,260.181,385.074,258.813,385.074,248.225"/>
	<path style="fill:#E0B775;" d="M155.794,248.225c0-10.59-6.463-19.175-14.433-19.175c-7.973,0-14.434,8.585-14.434,19.175
		c0,10.589,6.461,11.956,14.434,11.956C149.331,260.181,155.794,258.813,155.794,248.225"/>
</g>
<path style="fill:#F9D387;" d="M371.345,211.96v66.741c0,12.601-1.654,24.792-4.74,36.294c-1.134,4.23-2.445,8.351-3.965,12.368
	c-12.524,33.677-37.706,60.103-68.994,72.038c-0.733,0.289-1.466,0.566-2.198,0.823c-11.171,4.007-23.085,6.15-35.441,6.15
	c-12.368,0-24.283-2.143-35.44-6.15c-0.746-0.256-1.479-0.533-2.212-0.823c-23.238-8.86-43.09-25.715-56.913-47.611
	c-4.795-7.581-8.861-15.765-12.08-24.427c-1.52-4.017-2.83-8.137-3.953-12.368c-3.099-11.503-4.752-23.693-4.752-36.294V211.96
	c0-40.217,16.8-76.08,43.048-99.474c19.776-17.643,44.922-28.202,72.303-28.202c31.844,0,60.678,14.29,81.552,37.405
	C358.431,144.785,371.345,176.707,371.345,211.96"/>
<path style="fill:#68635B;" d="M371.342,211.958v55.516c0-35.252-12.913-67.174-33.787-90.268
	c-20.874-23.117-49.71-37.405-81.552-37.405c-27.381,0-52.529,10.559-72.303,28.202c-14.845,13.234-26.682,30.467-34.143,50.207
	c-5.74,15.156-8.905,31.799-8.905,49.264v-55.516c0-40.215,16.799-76.079,43.048-99.473c19.775-17.643,44.922-28.202,72.303-28.202
	c31.843,0,60.678,14.291,81.552,37.407C358.43,144.785,371.342,176.707,371.342,211.958"/>
<path style="fill:#545049;" d="M161.097,309.146l-0.155-1.189c-1.619-12.394-8.703-23.084-18.896-28.516l-1.388-0.741
	c0,12.609,1.651,24.794,4.744,36.301c1.127,4.221,2.438,8.343,3.959,12.36c12.531,33.676,37.71,60.11,68.997,72.037
	c-6.144-27.801-20.858-50.567-39.983-62.659C169.109,330.882,162.624,320.835,161.097,309.146"/>
<path style="fill:#68635B;" d="M351.062,307.957l-0.155,1.189c-1.528,11.689-8.012,21.737-17.275,27.595
	c-19.126,12.092-33.842,34.858-39.986,62.659c31.287-11.927,56.466-38.361,68.998-72.037c1.52-4.018,2.83-8.14,3.957-12.36
	c3.094-11.506,4.747-23.692,4.747-36.301l-1.389,0.741C359.763,284.872,352.68,295.562,351.062,307.957"/>
<path style="fill:#4BB3A2;" d="M141.107,200.565c-2.75,1.159-3.851,2.261-4.566,2.977c-2.216,2.216-4.203,6.212-5.908,11.406
	c3.082-1.598,6.451-2.821,10.023-3.6C140.672,207.714,140.823,204.12,141.107,200.565"/>
<path style="fill:#B7AD74;" d="M124.076,273.115c0.355,10.258,1.534,19.736,3.683,26.873c1.622,5.388,5.718,9.785,10.958,11.765
	c1.881,0.709,4.025,1.453,6.401,2.173c-1.242-4.773-2.236-9.664-2.97-14.648c-0.626-4.269-1.061-8.608-1.295-13.005
	C134.459,283.845,128.708,279.013,124.076,273.115"/>
<path style="fill:#B7C6A1;" d="M140.655,211.348c-3.572,0.778-6.941,2.002-10.023,3.6c-4.703,14.332-7.26,37.792-6.556,58.167
	c4.632,5.898,10.381,10.731,16.778,13.156c-0.133-2.505-0.201-5.029-0.201-7.569v-18.526c-7.644-0.085-13.728-1.677-13.728-11.951
	c0-10.276,6.085-18.663,13.728-19.152V211.96C140.654,211.756,140.655,211.552,140.655,211.348"/>
<path style="fill:#AEBB99;" d="M140.654,229.073c-7.644,0.487-13.728,8.875-13.728,19.152c0,10.275,6.085,11.867,13.728,11.951
	V229.073"/>
<g>
	<path style="fill:#587C7F;" d="M159.971,196.732c-10.015,0.996-15.601,2.456-18.864,3.833c-0.284,3.556-0.435,7.149-0.451,10.783
		c0,0.204-0.001,0.407-0.001,0.613v55.516C140.654,241.305,147.769,216.979,159.971,196.732"/>
	<path style="fill:#587C7F;" d="M140.658,278.7c0,7.004,0.51,13.878,1.492,20.576c0.733,4.985,1.727,9.875,2.97,14.648
		c5.065,1.537,11.184,2.968,18.063,3.762c-0.989-2.714-1.695-5.575-2.084-8.54l-0.155-1.189
		c-1.619-12.394-8.703-23.084-18.896-28.516L140.658,278.7"/>
</g>
<path style="fill:#4BB3A2;" d="M370.892,200.565c0.284,3.554,0.436,7.149,0.451,10.781c3.571,0.778,6.941,2.001,10.022,3.599
	c-1.704-5.195-3.69-9.187-5.906-11.404C374.742,202.825,373.642,201.724,370.892,200.565"/>
<path style="fill:#B7AD74;" d="M387.922,273.121c-4.63,5.896-10.381,10.727-16.776,13.151c-0.466,8.84-1.749,17.441-3.771,25.708
	c-0.158,0.651-0.321,1.298-0.49,1.944c2.373-0.719,4.515-1.461,6.394-2.171c5.24-1.98,9.337-6.378,10.958-11.765
	C386.387,292.852,387.567,283.377,387.922,273.121"/>
<path style="fill:#B7C6A1;" d="M371.342,211.346c0.001,0.204,0.001,0.41,0.001,0.614v17.113c7.643,0.487,13.729,8.875,13.729,19.152
	c0,10.275-6.086,11.867-13.729,11.951v7.299v11.226l0.003-0.001c0,2.542-0.068,5.066-0.201,7.57
	c6.393-2.424,12.145-7.255,16.776-13.151c0.705-20.378-1.853-43.842-6.557-58.176C378.283,213.347,374.913,212.125,371.342,211.346"
	/>
<path style="fill:#AEBB99;" d="M371.345,229.073v31.103c7.643-0.086,13.729-1.677,13.729-11.951
	C385.074,237.948,378.988,229.562,371.345,229.073"/>
<path style="fill:#587C7F;" d="M352.028,196.732c12.203,20.248,19.317,44.577,19.317,70.743v-7.299v-31.103V211.96
	c0-0.205,0-0.411-0.001-0.614c-0.014-3.632-0.167-7.227-0.451-10.781C367.627,199.188,362.044,197.728,352.028,196.732"/>
<g>
	<path style="fill:#4D4D4D;" d="M320.198,239.491v22.51c0,4.213-3.406,7.619-7.619,7.619c-4.063,0-7.382-3.179-7.6-7.193
		c-0.01-0.139-0.01-0.288-0.01-0.426v-22.51c0-4.213,3.406-7.62,7.61-7.62c2.105,0,4.012,0.855,5.384,2.225
		c0.984,0.984,1.699,2.235,2.027,3.626C320.128,238.288,320.198,238.885,320.198,239.491"/>
	<path style="fill:#4D4D4D;" d="M199.402,269.622c-4.205,0-7.616-3.409-7.616-7.616v-22.518c0-4.206,3.411-7.616,7.616-7.616
		c4.208,0,7.618,3.411,7.618,7.616v22.518C207.02,266.212,203.611,269.622,199.402,269.622"/>
</g>
<g>
	<path style="fill:#68635B;" d="M331.089,211.886c0-10.22-8.285-18.506-18.504-18.506c-10.22,0-18.506,8.284-18.506,18.506
		C304.299,201.665,320.869,201.665,331.089,211.886"/>
	<path style="fill:#68635B;" d="M217.909,211.886c0-10.22-8.286-18.506-18.507-18.506c-10.219,0-18.503,8.284-18.503,18.506
		C191.118,201.665,207.688,201.665,217.909,211.886"/>
</g>
<g>
	<path style="fill:#666666;" d="M320.194,239.491v22.51c0,4.213-3.408,7.619-7.62,7.619c-4.063,0-7.381-3.179-7.6-7.193
		c8.524-8.763,12.846-18.111,15.011-24.707C320.124,238.288,320.194,238.885,320.194,239.491"/>
	<path style="fill:#666666;" d="M207.013,239.491v22.51c0,4.213-3.406,7.619-7.619,7.619c-4.063,0-7.381-3.179-7.6-7.193
		c8.524-8.763,12.845-18.111,15.01-24.707C206.944,238.288,207.013,238.885,207.013,239.491"/>
</g>
<path style="fill:#E0B775;" d="M274.084,293.124c0-0.567-0.114-1.121-0.331-1.658c-2.302-5.686-3.932-11.611-3.883-17.743
	c0.006-0.686,0.009-1.383,0.009-2.096c0-34.249-6.216-54.758-13.883-54.758c-7.666,0-13.882,20.51-13.882,54.758
	c0,0.713,0.004,1.41,0.009,2.096c0.049,6.132-1.58,12.057-3.883,17.743c-0.218,0.536-0.33,1.09-0.33,1.658
	c0,2.797,2.754,5.276,7.016,6.867c2.533,7.917,6.549,9.008,11.069,9.008c4.522,0,8.538-1.091,11.072-9.008
	C271.329,298.4,274.084,295.92,274.084,293.124"/>
<path style="fill:#587C7F;" d="M371.347,278.7h-0.003l-1.387,0.741c-10.195,5.432-17.276,16.122-18.896,28.516l-0.155,1.189
	c-0.387,2.967-1.094,5.828-2.083,8.539c6.877-0.793,12.997-2.225,18.063-3.762c0.169-0.646,0.333-1.295,0.491-1.944
	c2.022-8.267,3.304-16.868,3.771-25.708C371.279,283.766,371.347,281.241,371.347,278.7"/>
<path style="fill:#5EC2D3;" d="M135.318,204.973c-1.85,2.463-3.405,5.993-4.707,9.984c0.007-0.003,0.014-0.007,0.021-0.011
	C132.019,210.728,133.589,207.299,135.318,204.973"/>
<path style="fill:#BEAC6C;" d="M132.357,307.638c1.794,1.791,3.957,3.21,6.361,4.117c1.881,0.711,4.025,1.453,6.4,2.173
	c0-0.001-0.001-0.002-0.001-0.003c-2.375-0.719-4.519-1.462-6.399-2.172C136.314,310.845,134.151,309.427,132.357,307.638
	 M142.081,298.805c0.006,0.036,0.01,0.07,0.016,0.105C142.091,298.875,142.087,298.84,142.081,298.805L142.081,298.805
	 M123.977,272.987c0.342,9.679,1.448,18.362,3.273,25.194c-1.828-6.893-2.848-15.651-3.173-25.066
	c0.008,0.009,0.014,0.019,0.022,0.028l0,0c-0.008-0.009-0.016-0.019-0.022-0.028l0,0
	C124.044,273.073,124.011,273.03,123.977,272.987"/>
<path style="fill:#BEC69D;" d="M140.666,280.577c0,0.019,0,0.037,0.001,0.056C140.668,280.614,140.666,280.596,140.666,280.577
	 M140.663,280.303c0,0.03,0,0.06,0.001,0.091C140.664,280.363,140.663,280.333,140.663,280.303 M140.66,279.96
	c0,0.059,0.001,0.118,0.001,0.178C140.661,280.079,140.66,280.019,140.66,279.96 M140.658,279.627c0,0.057,0.001,0.113,0.001,0.17
	C140.658,279.74,140.658,279.684,140.658,279.627 M140.655,279.343c0,0.057,0,0.113,0.001,0.17
	C140.656,279.456,140.656,279.4,140.655,279.343 M140.654,279.061c0,0.061,0,0.123,0,0.184
	C140.655,279.184,140.655,279.122,140.654,279.061 M140.654,278.702c0,0.09,0,0.18,0,0.269
	C140.654,278.881,140.654,278.792,140.654,278.702 M126.185,235.098c-0.654,4.39-1.064,8.137-1.282,10.385
	c-0.93,9.553-1.228,18.921-0.925,27.505c0.033,0.042,0.067,0.085,0.1,0.128C123.647,260.665,124.434,247.065,126.185,235.098
	 M130.634,214.947c-0.007,0.003-0.014,0.008-0.021,0.011c-0.727,2.233-1.375,4.609-1.949,7.023
	C129.269,219.458,129.926,217.1,130.634,214.947L130.634,214.947L130.634,214.947"/>
<path style="fill:#C4CDA1;" d="M142.081,298.804L142.081,298.804L142.081,298.804L142.081,298.804 M142.027,298.419
	c0.006,0.04,0.011,0.08,0.017,0.12C142.038,298.499,142.032,298.459,142.027,298.419 M141.974,298.044
	c0.006,0.039,0.011,0.077,0.016,0.115c-0.001-0.006-0.001-0.012-0.002-0.018c-0.002-0.013-0.003-0.028-0.006-0.041
	C141.98,298.083,141.977,298.063,141.974,298.044 M141.914,297.603c0.004,0.031,0.008,0.061,0.012,0.092
	c-0.003-0.023-0.007-0.048-0.01-0.071C141.917,297.616,141.916,297.61,141.914,297.603 M141.86,297.194
	c0.007,0.051,0.013,0.102,0.02,0.153c0-0.001,0-0.003-0.001-0.006C141.873,297.293,141.867,297.243,141.86,297.194 M141.808,296.79
	c0.006,0.046,0.011,0.09,0.018,0.135C141.819,296.88,141.813,296.835,141.808,296.79 M141.761,296.43
	c0.006,0.041,0.01,0.081,0.016,0.122C141.772,296.512,141.767,296.472,141.761,296.43 M141.702,295.952
	c0.007,0.052,0.012,0.103,0.019,0.155C141.715,296.055,141.709,296.003,141.702,295.952 M141.657,295.579
	c0.008,0.062,0.014,0.123,0.022,0.185C141.672,295.702,141.665,295.641,141.657,295.579 M141.589,294.999
	c0.018,0.151,0.036,0.302,0.053,0.453C141.625,295.302,141.607,295.15,141.589,294.999 M191.799,262.425
	c-0.008-0.139-0.011-0.279-0.011-0.42v-22.518c0-4.206,3.411-7.616,7.616-7.616c4.208,0,7.618,3.411,7.618,7.616v22.518
	c0,4.207-3.41,7.616-7.618,7.616c-0.001,0-0.002,0-0.004,0c-0.001,0-0.002,0-0.004,0c-4.063,0-7.381-3.179-7.6-7.193
	C191.795,262.428,191.796,262.427,191.799,262.425 M190.787,195.498c-13.343,0-23.321,0.487-30.816,1.235
	c-12.202,20.247-19.317,44.573-19.317,70.743v-0.622l0,0v11.847l0,0c0,0.09,0,0.179,0,0.269c0,0.03,0,0.06,0,0.09
	c0,0.061,0,0.123,0,0.184c0,0.033,0,0.066,0,0.098c0,0.057,0,0.113,0.001,0.17c0,0.038,0,0.076,0.001,0.114
	c0,0.057,0.001,0.113,0.001,0.17c0,0.054,0.001,0.109,0.001,0.163c0,0.059,0.001,0.118,0.001,0.178c0,0.054,0.001,0.11,0.002,0.165
	c0,0.03,0,0.061,0.001,0.091c0.001,0.061,0.001,0.122,0.002,0.184c0,0.019,0,0.037,0.001,0.056c0.026,1.889,0.088,3.768,0.188,5.637
	c0,0,0,0-0.001,0l0,0l0,0c0.155,2.931,0.401,5.835,0.733,8.71c-0.529-4.586-0.836-9.247-0.912-13.97
	c0-0.023-0.001-0.048-0.001-0.072c-0.001-0.08-0.002-0.16-0.003-0.24c0-0.032-0.001-0.066-0.001-0.098
	c-0.001-0.07-0.002-0.139-0.002-0.209c0-0.039-0.001-0.078-0.001-0.117c0-0.068-0.001-0.137-0.002-0.203
	c0-0.038-0.001-0.074-0.001-0.113c0-0.066-0.001-0.131-0.001-0.197c0-0.04,0-0.081-0.001-0.121c0-0.067-0.001-0.135-0.001-0.202
	c0-0.037,0-0.074,0-0.112c0-0.07,0-0.141-0.001-0.211c0-0.036,0-0.07,0-0.104c0-0.104,0-0.209,0-0.312l0,0l0,0l1.388,0.741
	c10.194,5.432,17.279,16.122,18.896,28.516l0.155,1.189c0.266,2.037,0.684,4.026,1.239,5.951c0,0.002,0.001,0.003,0.001,0.006
	c0.01,0.034,0.02,0.069,0.03,0.103c0.004,0.014,0.008,0.028,0.012,0.042c0.007,0.021,0.012,0.042,0.019,0.063
	c0.009,0.028,0.017,0.055,0.024,0.083c0.002,0.006,0.003,0.011,0.006,0.018c0.229,0.768,0.48,1.527,0.753,2.273
	c3.517,0.405,7.234,0.644,11.11,0.644c7.853,0,15.528-1.005,22.811-2.99l0.717-0.197l0.613-0.416
	c1.524-1.036,37.469-26.058,47.34-84.897c1.081-6.521-1.085-13.237-5.805-17.97l-9.788-9.786c-3.698-3.685-8.599-5.832-13.803-6.043
	c-2.224-0.09-4.895-0.185-7.892-0.271c5.625,3.174,9.424,9.207,9.424,16.126c-5.111-5.111-11.808-7.666-18.506-7.666
	c-6.697,0-13.395,2.555-18.504,7.666c0-7.115,4.015-13.292,9.902-16.388C190.796,195.498,190.791,195.498,190.787,195.498"/>
<path style="fill:#577778;" d="M162.43,315.412c0.229,0.768,0.48,1.527,0.752,2.274c0.001,0,0,0,0.001,0
	C162.909,316.939,162.658,316.181,162.43,315.412 M162.4,315.311c0.008,0.028,0.017,0.055,0.024,0.083
	C162.415,315.367,162.407,315.34,162.4,315.311 M162.369,315.206c0.004,0.014,0.008,0.028,0.012,0.042
	C162.376,315.235,162.372,315.22,162.369,315.206 M162.336,315.097c0,0.001,0.001,0.003,0.001,0.006
	C162.338,315.101,162.338,315.099,162.336,315.097 M142.3,300.271L142.3,300.271c0.716,4.641,1.66,9.198,2.82,13.655h-0.002
	c0,0.001,0,0.002,0.001,0.003c4.661,1.412,10.215,2.737,16.433,3.556c-6.217-0.821-11.77-2.146-16.431-3.56
	C143.959,309.469,143.016,304.912,142.3,300.271 M141.982,298.101c0.002,0.013,0.003,0.027,0.006,0.041
	C141.986,298.128,141.984,298.115,141.982,298.101 M141.907,297.551c0.002,0.018,0.004,0.034,0.007,0.052
	c0.001,0.007,0.002,0.013,0.002,0.021C141.913,297.599,141.91,297.574,141.907,297.551 M141.853,297.14
	c0.002,0.019,0.004,0.037,0.007,0.054c0.007,0.049,0.013,0.099,0.02,0.148C141.871,297.275,141.861,297.208,141.853,297.14
	 M141.805,296.764c0.001,0.009,0.002,0.018,0.003,0.026c0.006,0.044,0.011,0.091,0.018,0.135c0.003,0.029,0.008,0.058,0.011,0.087
	C141.826,296.929,141.815,296.847,141.805,296.764 M140.675,281.012c0.076,4.723,0.383,9.384,0.912,13.97
	c0.001,0.006,0.001,0.012,0.002,0.019c0.018,0.151,0.036,0.302,0.053,0.453c0.004,0.042,0.01,0.084,0.014,0.127
	c0.008,0.062,0.014,0.123,0.022,0.185c0.008,0.062,0.016,0.124,0.023,0.188c0.007,0.051,0.012,0.103,0.019,0.155
	c0.013,0.108,0.027,0.215,0.04,0.323c0.006,0.041,0.01,0.081,0.016,0.122c0.008,0.061,0.016,0.121,0.023,0.182
	C141.142,291.585,140.761,286.338,140.675,281.012 M140.671,280.7c0.001,0.081,0.002,0.16,0.003,0.24
	C140.673,280.859,140.672,280.78,140.671,280.7 M140.668,280.393c0.001,0.07,0.001,0.139,0.002,0.209
	C140.669,280.532,140.668,280.462,140.668,280.393 M140.664,280.073c0,0.068,0.001,0.135,0.002,0.203
	C140.665,280.209,140.664,280.14,140.664,280.073 M140.661,279.764c0,0.066,0.001,0.131,0.001,0.197
	C140.662,279.895,140.662,279.829,140.661,279.764 M140.659,279.439c0,0.068,0,0.135,0.001,0.202
	C140.66,279.575,140.66,279.507,140.659,279.439 M140.658,279.117c0,0.07,0,0.141,0.001,0.211
	C140.658,279.257,140.658,279.187,140.658,279.117 M140.658,278.7c0,0.104,0,0.209,0,0.312
	C140.658,278.909,140.658,278.804,140.658,278.7L140.658,278.7"/>
<path style="fill:#51B8B3;" d="M141.107,200.568c-2.746,1.16-3.846,2.262-4.559,2.977c-0.423,0.423-0.833,0.902-1.229,1.429
	c-1.729,2.326-3.299,5.754-4.686,9.973v0.001c3.082-1.598,6.451-2.821,10.023-3.6l0,0
	C140.672,207.715,140.823,204.123,141.107,200.568"/>
<path style="fill:#99B494;" d="M124.076,273.115c0.325,9.415,1.346,18.174,3.173,25.066c0.165,0.618,0.336,1.221,0.513,1.809
	c0.879,2.915,2.48,5.539,4.593,7.648c1.794,1.789,3.957,3.207,6.361,4.115c1.88,0.709,4.024,1.452,6.399,2.172h0.002
	c-1.16-4.457-2.103-9.014-2.82-13.655c-0.051-0.331-0.101-0.663-0.15-0.995l0,0c-0.018-0.122-0.036-0.244-0.053-0.366
	c-0.006-0.036-0.01-0.07-0.016-0.105l0,0c-0.012-0.089-0.026-0.177-0.038-0.265c-0.006-0.04-0.011-0.08-0.017-0.12
	c-0.012-0.087-0.024-0.173-0.037-0.26c-0.006-0.039-0.011-0.077-0.016-0.115c-0.016-0.117-0.032-0.232-0.048-0.349
	c-0.004-0.031-0.008-0.061-0.012-0.092c-0.002-0.018-0.004-0.034-0.007-0.052c-0.009-0.068-0.018-0.135-0.027-0.203
	c-0.007-0.051-0.013-0.102-0.02-0.153c-0.002-0.019-0.004-0.037-0.007-0.054c-0.006-0.043-0.011-0.085-0.017-0.129
	c-0.003-0.029-0.008-0.058-0.011-0.087c-0.006-0.046-0.011-0.09-0.018-0.135c-0.001-0.009-0.002-0.018-0.003-0.026
	c-0.001-0.01-0.002-0.02-0.003-0.03c-0.008-0.061-0.016-0.121-0.023-0.182c-0.006-0.041-0.01-0.081-0.016-0.122
	c-0.013-0.108-0.027-0.215-0.04-0.323c-0.007-0.052-0.012-0.103-0.019-0.155c-0.008-0.063-0.016-0.125-0.023-0.188
	c-0.008-0.062-0.014-0.123-0.022-0.185c-0.006-0.042-0.01-0.084-0.014-0.127c-0.018-0.151-0.036-0.302-0.053-0.453
	c-0.001-0.006-0.001-0.012-0.002-0.019c-0.332-2.876-0.577-5.779-0.732-8.71c0,0,0,0-0.001,0
	c-6.385-2.423-12.128-7.243-16.755-13.128C124.092,273.134,124.084,273.124,124.076,273.115"/>
<path style="fill:#99C5B2;" d="M140.655,211.348c-3.572,0.778-6.941,2.002-10.023,3.6l0,0c-0.706,2.152-1.365,4.51-1.97,7.032
	c-1.064,4.469-1.875,9.067-2.479,13.117c-1.75,11.967-2.537,25.567-2.107,38.017l0,0c0.008,0.009,0.014,0.019,0.022,0.028
	c4.628,5.885,10.369,10.706,16.755,13.128l0,0c-0.099-1.869-0.162-3.748-0.188-5.637c0-0.019,0-0.038-0.001-0.056
	c-0.001-0.062-0.001-0.123-0.002-0.184c0-0.03,0-0.06-0.001-0.091c-0.001-0.056-0.001-0.111-0.002-0.165
	c0-0.059-0.001-0.118-0.001-0.178c0-0.054-0.001-0.109-0.001-0.163c0-0.057-0.001-0.113-0.001-0.17c0-0.038,0-0.076-0.001-0.114
	c0-0.057,0-0.113-0.001-0.17c0-0.032,0-0.066,0-0.098c0-0.061,0-0.123,0-0.184c0-0.03,0-0.06,0-0.09c0-0.09,0-0.18,0-0.269l0,0
	v-11.847v-6.678c-7.644-0.086-13.728-1.677-13.728-11.951l0,0l0,0c0-10.276,6.085-18.663,13.728-19.152v-17.113l0,0
	C140.654,211.756,140.655,211.552,140.655,211.348"/>
<path style="fill:#577778;" d="M161.769,317.513c0.003,0,0.007,0.001,0.01,0.001C161.776,317.514,161.772,317.513,161.769,317.513
	 M161.595,317.49c0.026,0.003,0.051,0.007,0.077,0.01C161.645,317.497,161.62,317.494,161.595,317.49"/>
<path style="fill:#93BDAD;" d="M140.654,229.073L140.654,229.073c-7.644,0.487-13.728,8.875-13.728,19.152l0,0
	c0,10.275,6.085,11.867,13.728,11.951V229.073"/>
<g>
	<path style="fill:#5A949C;" d="M159.971,196.732c-10.022,0.998-15.603,2.458-18.864,3.836c-0.284,3.555-0.435,7.148-0.451,10.78
		l0,0c0,0.204-0.001,0.407-0.001,0.613l0,0v54.894v0.622C140.654,241.305,147.769,216.979,159.971,196.732"/>
	<path style="fill:#5A949C;" d="M140.658,278.7L140.658,278.7c0,0.104,0,0.209,0,0.312c0,0.034,0,0.07,0,0.104
		c0,0.07,0,0.14,0.001,0.211c0,0.038,0,0.074,0,0.112c0,0.068,0,0.135,0.001,0.202c0,0.041,0,0.081,0.001,0.121
		c0,0.066,0.001,0.131,0.001,0.197c0,0.038,0,0.074,0.001,0.113c0,0.068,0.001,0.135,0.002,0.203c0,0.039,0.001,0.078,0.001,0.117
		c0.001,0.07,0.001,0.139,0.002,0.209c0,0.032,0.001,0.066,0.001,0.098c0.001,0.08,0.002,0.16,0.003,0.24
		c0,0.024,0,0.048,0.001,0.072c0.085,5.326,0.466,10.573,1.125,15.723c0.001,0.01,0.002,0.02,0.003,0.03
		c0.011,0.082,0.021,0.164,0.032,0.248c0.006,0.043,0.011,0.085,0.017,0.129c0.009,0.068,0.018,0.135,0.027,0.203
		c0,0.002,0,0.003,0.001,0.006c0.009,0.068,0.018,0.135,0.027,0.203c0.003,0.023,0.007,0.048,0.01,0.072
		c0.003,0.023,0.007,0.048,0.01,0.071c0.016,0.117,0.032,0.232,0.048,0.349c0.002,0.019,0.006,0.039,0.008,0.058
		c0.002,0.013,0.003,0.027,0.006,0.041c0.001,0.006,0.001,0.011,0.002,0.018c0.012,0.087,0.024,0.173,0.037,0.26
		c0.006,0.04,0.011,0.08,0.017,0.12c0.012,0.089,0.024,0.178,0.038,0.265l0,0c0.006,0.034,0.01,0.07,0.016,0.105
		c0.018,0.122,0.036,0.244,0.053,0.366l0,0c0.049,0.332,0.099,0.664,0.15,0.995c0.716,4.641,1.66,9.198,2.82,13.655
		c4.662,1.413,10.215,2.739,16.431,3.56c0.014,0.001,0.029,0.003,0.043,0.006c0.026,0.003,0.051,0.007,0.077,0.01
		c0.033,0.004,0.066,0.009,0.099,0.012c0.003,0,0.007,0.001,0.01,0.001c0.463,0.06,0.932,0.117,1.402,0.171
		c-0.272-0.746-0.523-1.504-0.752-2.273c-0.002-0.006-0.003-0.011-0.006-0.018c-0.008-0.028-0.017-0.056-0.024-0.083
		c-0.007-0.021-0.012-0.042-0.019-0.063c-0.004-0.014-0.008-0.028-0.012-0.042c-0.01-0.034-0.02-0.069-0.03-0.103
		c0-0.002-0.001-0.004-0.001-0.006c-0.555-1.925-0.973-3.914-1.239-5.951l-0.155-1.189c-1.619-12.394-8.703-23.084-18.896-28.516
		L140.658,278.7"/>
</g>
<path style="fill:#53757B;" d="M199.402,231.871c-4.205,0-7.616,3.411-7.616,7.616v22.518c0,0.141,0.003,0.281,0.011,0.42
	c8.521-8.761,12.842-18.108,15.007-24.702c0.139,0.565,0.209,1.163,0.209,1.769v22.51c0,4.21-3.404,7.617-7.615,7.619
	c0.001,0,0.003,0,0.004,0c4.208,0,7.618-3.409,7.618-7.616v-22.518C207.02,235.282,203.611,231.871,199.402,231.871"/>
<path style="fill:#658384;" d="M190.801,195.498c-5.888,3.097-9.902,9.273-9.902,16.388c5.11-5.111,11.807-7.666,18.504-7.666
	c6.697,0,13.395,2.555,18.506,7.666c0-6.919-3.798-12.953-9.424-16.126C203.344,195.613,197.243,195.498,190.801,195.498"/>
<path style="fill:#63858B;" d="M206.804,237.723c-2.164,6.594-6.486,15.941-15.007,24.702c-0.001,0.001-0.002,0.002-0.004,0.004
	c0.219,4.013,3.536,7.193,7.6,7.193c0.001,0,0.003,0,0.004,0c4.21-0.002,7.615-3.408,7.615-7.619v-22.51
	C207.013,238.885,206.944,238.288,206.804,237.723"/>
<path style="fill:#BEAC6C;" d="M367.282,312.365c-0.113,0.459-0.229,0.917-0.348,1.375
	C367.053,313.281,367.169,312.823,367.282,312.365 M387.924,273.118c-0.001,0.001-0.001,0.001-0.002,0.002
	c-0.354,10.255-1.534,19.731-3.683,26.866c-1.621,5.388-5.718,9.785-10.958,11.765c-1.879,0.71-4.02,1.451-6.393,2.171
	c0,0.001,0,0.001,0,0.002c2.373-0.718,4.513-1.46,6.392-2.17c5.242-1.981,9.341-6.381,10.965-11.77
	C386.391,292.85,387.57,283.374,387.924,273.118"/>
<path style="fill:#BEC69D;" d="M386.902,243.934c0.97,9.578,1.347,19.716,1.019,29.187c-4.63,5.895-10.381,10.726-16.775,13.151l0,0
	c6.393-2.425,12.145-7.256,16.775-13.151l0,0l0,0l0,0c0.001,0,0.001-0.001,0.002-0.002
	C388.25,263.646,387.873,253.511,386.902,243.934"/>
<path style="fill:#C4CDA1;" d="M367.327,312.182c-0.003,0.013-0.007,0.026-0.009,0.038c0,0.002-0.001,0.003-0.001,0.006
	c-0.01,0.042-0.021,0.084-0.031,0.127c-0.038,0.153-0.077,0.306-0.114,0.46c-0.006,0.021-0.011,0.041-0.016,0.062
	c-0.011,0.046-0.022,0.09-0.034,0.135c-0.078,0.306-0.155,0.613-0.235,0.918h0.001c0,0,0-0.001,0-0.002l0,0
	c0.017-0.061,0.032-0.123,0.048-0.185c0.118-0.457,0.233-0.916,0.348-1.375C367.297,312.303,367.312,312.242,367.327,312.182
	 M304.979,262.424c-0.01-0.138-0.01-0.283-0.01-0.421v-22.51c0-4.213,3.406-7.62,7.61-7.62c2.105,0,4.012,0.855,5.384,2.225
	c0.984,0.984,1.699,2.235,2.027,3.626c0.138,0.565,0.209,1.162,0.209,1.769v22.51c0,4.213-3.406,7.619-7.619,7.619
	c-0.001,0-0.002,0-0.003,0c-0.001,0-0.001,0-0.002,0c-4.063,0-7.381-3.179-7.6-7.193
	C304.976,262.427,304.977,262.426,304.979,262.424 M321.21,195.498c-0.008,0-0.017,0-0.024,0c5.888,3.097,9.903,9.273,9.903,16.388
	c-5.111-5.111-11.808-7.666-18.506-7.666c-6.697,0-13.395,2.555-18.504,7.666c0-6.919,3.797-12.952,9.422-16.126
	c-2.993,0.085-5.664,0.181-7.887,0.271c-5.201,0.211-10.102,2.358-13.809,6.05l-9.767,9.78c-4.731,4.73-6.9,11.451-5.805,17.976
	c9.86,58.832,45.803,83.855,47.329,84.891l0.614,0.417l0.715,0.194c7.286,1.985,14.964,2.99,22.815,2.99
	c3.877,0,7.595-0.239,11.114-0.644c0.99-2.714,1.698-5.574,2.085-8.539l0,0l0.155-1.189c1.62-12.394,8.702-23.085,18.896-28.516
	l1.387-0.741v-11.224c0-0.214,0-0.43-0.001-0.643v0.642c0-26.163-7.114-50.495-19.315-70.742
	C344.531,195.985,334.555,195.498,321.21,195.498"/>
<g>
	<path style="fill:#658384;" d="M352.028,196.732c12.201,20.248,19.315,44.578,19.315,70.742v-0.642
		C371.227,240.91,364.131,216.814,352.028,196.732L352.028,196.732"/>
	<path style="fill:#658384;" d="M367.171,312.811c-0.006,0.021-0.011,0.041-0.016,0.062
		C367.16,312.852,367.165,312.832,367.171,312.811 M367.317,312.226c-0.011,0.042-0.021,0.084-0.031,0.127
		C367.295,312.31,367.305,312.268,367.317,312.226 M350.906,309.146c-0.387,2.967-1.095,5.827-2.085,8.539
		c6.88-0.793,13-2.224,18.065-3.759c0.08-0.305,0.158-0.612,0.235-0.918c-0.078,0.305-0.157,0.611-0.235,0.916
		c-5.065,1.537-11.185,2.968-18.063,3.762C349.812,314.973,350.519,312.112,350.906,309.146 M369.052,304.136
		c-0.485,2.645-1.044,5.261-1.675,7.842c-0.02,0.08-0.039,0.161-0.059,0.241c0.003-0.012,0.007-0.024,0.009-0.038
		c0.017-0.068,0.033-0.135,0.05-0.203C368.008,309.397,368.567,306.781,369.052,304.136L369.052,304.136"/>
</g>
<path style="fill:#5EC2D3;" d="M381.325,214.828c0.012,0.039,0.026,0.077,0.038,0.115l0,0
	C381.351,214.906,381.338,214.866,381.325,214.828 M381.22,214.511c0.033,0.099,0.067,0.199,0.1,0.3
	C381.286,214.71,381.253,214.611,381.22,214.511 M381.175,214.377c0.008,0.021,0.014,0.043,0.022,0.064
	C381.19,214.422,381.182,214.398,381.175,214.377 M381.131,214.249c0.004,0.012,0.009,0.026,0.013,0.038
	C381.14,214.273,381.135,214.261,381.131,214.249"/>
<path style="fill:#BEC69D;" d="M386.88,243.717c0.007,0.07,0.014,0.141,0.021,0.211C386.895,243.857,386.888,243.787,386.88,243.717
	 M386.829,243.225c0.016,0.151,0.031,0.301,0.047,0.452C386.86,243.527,386.845,243.375,386.829,243.225 M386.802,242.973
	c0.008,0.077,0.017,0.153,0.024,0.23C386.819,243.128,386.811,243.048,386.802,242.973 M386.789,242.849
	c0.004,0.039,0.008,0.078,0.012,0.117C386.798,242.926,386.794,242.889,386.789,242.849 M386.751,242.494
	c0.006,0.047,0.01,0.09,0.014,0.137C386.761,242.584,386.757,242.54,386.751,242.494 M386.728,242.279
	c0.004,0.039,0.009,0.078,0.012,0.117C386.737,242.356,386.733,242.318,386.728,242.279 M386.704,242.056
	c0.001,0.016,0.003,0.031,0.006,0.047C386.707,242.088,386.706,242.071,386.704,242.056 M386.68,241.843c0,0.001,0,0,0,0.001
	V241.843 M386.654,241.604c0.001,0.012,0.003,0.026,0.004,0.038C386.656,241.631,386.655,241.615,386.654,241.604 M386.629,241.391
	c0,0.003,0.001,0.009,0.001,0.013C386.63,241.4,386.63,241.397,386.629,241.391 M386.603,241.161
	c0.001,0.008,0.002,0.017,0.002,0.023C386.605,241.176,386.604,241.171,386.603,241.161 M386.579,240.95c0,0.001,0,0.001,0,0.002
	V240.95 M384.233,226.027c0,0.001,0,0.001,0,0.002V226.027 M384.192,225.826c0.001,0.006,0.002,0.01,0.003,0.016
	C384.194,225.838,384.193,225.829,384.192,225.826 M384.151,225.627c0.001,0.009,0.003,0.016,0.004,0.024
	C384.154,225.643,384.152,225.635,384.151,225.627 M384.112,225.439c0,0.002,0.001,0.007,0.001,0.009
	C384.112,225.444,384.112,225.443,384.112,225.439 M384.068,225.232c0.002,0.011,0.004,0.02,0.007,0.03
	C384.072,225.252,384.07,225.241,384.068,225.232 M384.029,225.051c0.001,0.004,0.001,0.006,0.002,0.01
	C384.031,225.059,384.03,225.052,384.029,225.051 M383.988,224.853c0.001,0.006,0.002,0.011,0.003,0.017
	C383.989,224.863,383.989,224.859,383.988,224.853 M383.739,223.722v0.001V223.722 M383.696,223.527
	c0.002,0.009,0.003,0.017,0.006,0.027C383.699,223.544,383.698,223.537,383.696,223.527 M383.649,223.326
	c0.004,0.02,0.009,0.039,0.013,0.059C383.658,223.365,383.654,223.345,383.649,223.326 M383.606,223.134
	c0.004,0.021,0.01,0.044,0.014,0.066C383.616,223.179,383.61,223.157,383.606,223.134 M383.56,222.938
	c0.006,0.023,0.011,0.048,0.017,0.072C383.571,222.984,383.566,222.963,383.56,222.938 M383.516,222.745
	c0.006,0.026,0.012,0.052,0.018,0.078C383.527,222.795,383.522,222.771,383.516,222.745 M383.469,222.545
	c0.007,0.03,0.014,0.061,0.021,0.092C383.483,222.606,383.476,222.576,383.469,222.545 M383.426,222.363
	c0.006,0.026,0.012,0.053,0.019,0.08C383.438,222.415,383.433,222.389,383.426,222.363 M383.378,222.161
	c0.008,0.031,0.014,0.06,0.022,0.091C383.393,222.222,383.385,222.192,383.378,222.161 M383.331,221.962
	c0.008,0.033,0.017,0.069,0.024,0.102C383.347,222.032,383.338,221.994,383.331,221.962 M383.282,221.758
	c0.01,0.04,0.019,0.08,0.029,0.119C383.301,221.836,383.291,221.798,383.282,221.758 M383.233,221.559
	c0.011,0.043,0.021,0.084,0.031,0.127C383.254,221.644,383.243,221.601,383.233,221.559 M383.171,221.307
	c0.016,0.063,0.031,0.127,0.047,0.19C383.203,221.434,383.186,221.369,383.171,221.307 M383.124,221.117
	c0.014,0.058,0.029,0.115,0.043,0.172C383.152,221.23,383.138,221.175,383.124,221.117 M383.076,220.927
	c0.012,0.05,0.024,0.099,0.038,0.15C383.102,221.028,383.089,220.976,383.076,220.927 M383.031,220.745
	c0.011,0.044,0.022,0.089,0.033,0.133C383.053,220.833,383.042,220.789,383.031,220.745 M382.981,220.547
	c0.011,0.044,0.022,0.087,0.033,0.131C383.003,220.635,382.992,220.591,382.981,220.547 M382.933,220.361
	c0.012,0.048,0.024,0.097,0.037,0.144C382.957,220.456,382.945,220.409,382.933,220.361 M382.885,220.174
	c0.011,0.046,0.023,0.09,0.034,0.137C382.909,220.266,382.896,220.219,382.885,220.174 M382.835,219.986
	c0.012,0.047,0.024,0.093,0.037,0.14C382.86,220.079,382.848,220.032,382.835,219.986 M382.783,219.783
	c0.013,0.052,0.028,0.104,0.041,0.157C382.81,219.887,382.798,219.837,382.783,219.783 M382.735,219.601
	c0.014,0.054,0.029,0.108,0.043,0.162C382.763,219.709,382.75,219.656,382.735,219.601 M382.681,219.399
	c0.016,0.058,0.031,0.115,0.047,0.173C382.712,219.514,382.697,219.457,382.681,219.399 M382.631,219.212
	c0.017,0.061,0.032,0.12,0.049,0.182C382.663,219.333,382.648,219.272,382.631,219.212 M382.326,218.104
	c0.103,0.364,0.204,0.729,0.304,1.103C382.529,218.834,382.428,218.467,382.326,218.104 M382.275,217.925
	c0.016,0.056,0.031,0.11,0.047,0.167C382.306,218.036,382.29,217.978,382.275,217.925 M382.224,217.746
	c0.016,0.053,0.03,0.105,0.046,0.16C382.254,217.852,382.239,217.8,382.224,217.746 M382.171,217.565
	c0.016,0.053,0.03,0.105,0.046,0.16C382.202,217.672,382.187,217.618,382.171,217.565 M382.119,217.385
	c0.016,0.053,0.031,0.108,0.047,0.161C382.15,217.494,382.134,217.437,382.119,217.385 M382.066,217.204
	c0.017,0.056,0.032,0.111,0.049,0.167C382.098,217.315,382.083,217.259,382.066,217.204 M381.364,214.944v0.001l0,0
	c0.239,0.727,0.472,1.477,0.699,2.248C381.835,216.421,381.603,215.672,381.364,214.944L381.364,214.944"/>
<path style="fill:#51B8B3;" d="M370.892,200.567c0.284,3.554,0.436,7.148,0.451,10.779l0,0c3.571,0.778,6.941,2.001,10.022,3.599
	v-0.001c-0.012-0.039-0.026-0.077-0.038-0.115c-0.002-0.007-0.003-0.011-0.006-0.018c-0.033-0.1-0.067-0.2-0.1-0.3
	c-0.008-0.023-0.016-0.047-0.023-0.069c-0.008-0.022-0.014-0.043-0.022-0.064c-0.01-0.03-0.021-0.061-0.031-0.092
	c-0.004-0.012-0.009-0.026-0.013-0.038c-1.652-4.853-3.557-8.589-5.673-10.703C374.743,202.829,373.641,201.728,370.892,200.567"/>
<path style="fill:#99B494;" d="M387.922,273.121c-4.63,5.895-10.381,10.726-16.775,13.151h-0.001
	c-0.321,6.079-1.027,12.044-2.094,17.865c-0.485,2.645-1.044,5.261-1.675,7.842c-0.017,0.068-0.033,0.135-0.05,0.203
	c-0.014,0.061-0.03,0.121-0.044,0.182c-0.113,0.46-0.229,0.917-0.348,1.375c-0.016,0.062-0.032,0.123-0.048,0.185l0,0
	c2.373-0.719,4.515-1.461,6.393-2.171c5.24-1.98,9.337-6.378,10.958-11.765C386.387,292.852,387.567,283.377,387.922,273.121
	L387.922,273.121"/>
<path style="fill:#99C5B2;" d="M371.342,211.346c0.001,0.204,0.001,0.41,0.001,0.614v17.113c7.643,0.487,13.729,8.875,13.729,19.152
	l0,0l0,0c0,10.275-6.086,11.867-13.729,11.951v7.299l0,0V278.7h0.003l0,0l0,0c0,2.542-0.068,5.066-0.201,7.57h0.001
	c6.393-2.425,12.145-7.256,16.775-13.151c0.328-9.471-0.049-19.609-1.019-29.187v-0.006c-0.007-0.07-0.014-0.141-0.021-0.211
	c-0.001-0.014-0.002-0.026-0.004-0.04c-0.016-0.151-0.031-0.301-0.047-0.452c-0.001-0.009-0.001-0.013-0.002-0.023
	c-0.008-0.077-0.017-0.153-0.024-0.23c0-0.002,0-0.006-0.001-0.008c-0.004-0.039-0.008-0.078-0.012-0.117
	c-0.008-0.072-0.016-0.147-0.023-0.219c-0.004-0.047-0.01-0.09-0.014-0.137c-0.003-0.032-0.007-0.066-0.011-0.098
	c-0.004-0.039-0.009-0.078-0.012-0.117c-0.007-0.058-0.012-0.118-0.019-0.177c-0.001-0.016-0.003-0.031-0.006-0.047
	c-0.008-0.072-0.016-0.14-0.023-0.212c0-0.001,0,0,0-0.001c-0.008-0.068-0.014-0.133-0.022-0.201
	c-0.001-0.012-0.003-0.026-0.004-0.038c-0.008-0.068-0.014-0.132-0.022-0.2c0-0.003-0.001-0.009-0.001-0.013
	c-0.008-0.068-0.016-0.139-0.023-0.207c-0.001-0.008-0.002-0.017-0.002-0.023c-0.008-0.07-0.016-0.139-0.024-0.209
	c0-0.001,0-0.001,0-0.002c-0.608-5.258-1.396-10.301-2.345-14.921c0-0.001,0-0.001,0-0.002c-0.013-0.063-0.026-0.122-0.038-0.185
	c-0.001-0.006-0.002-0.01-0.003-0.016c-0.012-0.059-0.024-0.115-0.037-0.174c-0.002-0.009-0.003-0.016-0.004-0.024
	c-0.012-0.059-0.026-0.12-0.038-0.179c0-0.002-0.001-0.007-0.001-0.009c-0.012-0.059-0.024-0.119-0.038-0.178
	c-0.002-0.011-0.004-0.02-0.007-0.03c-0.012-0.059-0.023-0.113-0.037-0.171c-0.001-0.004-0.001-0.006-0.002-0.01
	c-0.012-0.06-0.026-0.121-0.039-0.181c-0.001-0.006-0.002-0.011-0.003-0.017c-0.081-0.38-0.164-0.756-0.248-1.13v-0.001
	c-0.012-0.054-0.026-0.112-0.038-0.167c-0.002-0.01-0.003-0.018-0.006-0.027c-0.011-0.047-0.022-0.095-0.032-0.143
	c-0.004-0.02-0.009-0.039-0.013-0.059c-0.01-0.043-0.019-0.083-0.029-0.125c-0.004-0.021-0.01-0.044-0.014-0.066
	c-0.01-0.041-0.019-0.084-0.029-0.124c-0.006-0.024-0.011-0.048-0.017-0.072c-0.009-0.037-0.019-0.079-0.027-0.115
	c-0.006-0.026-0.012-0.051-0.018-0.078c-0.008-0.034-0.017-0.073-0.026-0.108c-0.007-0.03-0.014-0.061-0.021-0.092
	c-0.008-0.034-0.017-0.069-0.024-0.103c-0.006-0.026-0.012-0.054-0.019-0.08c-0.009-0.037-0.018-0.073-0.026-0.111
	c-0.008-0.031-0.014-0.06-0.022-0.091c-0.008-0.032-0.016-0.064-0.023-0.097c-0.008-0.033-0.017-0.069-0.024-0.102
	c-0.007-0.029-0.013-0.056-0.02-0.084c-0.01-0.04-0.019-0.08-0.029-0.119c-0.006-0.024-0.011-0.048-0.018-0.072
	c-0.011-0.043-0.021-0.084-0.031-0.127c-0.004-0.021-0.01-0.042-0.016-0.062c-0.016-0.063-0.031-0.127-0.047-0.19
	c-0.001-0.006-0.003-0.012-0.004-0.018c-0.014-0.058-0.029-0.115-0.043-0.172c-0.003-0.013-0.007-0.026-0.01-0.04
	c-0.012-0.05-0.024-0.099-0.038-0.15c-0.004-0.017-0.008-0.033-0.012-0.05c-0.011-0.044-0.022-0.089-0.033-0.133
	c-0.006-0.023-0.011-0.044-0.017-0.067c-0.011-0.044-0.022-0.087-0.033-0.131c-0.003-0.014-0.007-0.028-0.011-0.042
	c-0.012-0.048-0.024-0.097-0.037-0.144c-0.004-0.017-0.009-0.033-0.012-0.05c-0.012-0.047-0.023-0.091-0.034-0.137
	c-0.004-0.017-0.009-0.032-0.012-0.049c-0.012-0.047-0.024-0.093-0.037-0.14c-0.003-0.014-0.008-0.031-0.012-0.047
	c-0.013-0.052-0.027-0.104-0.041-0.157c-0.001-0.006-0.003-0.014-0.006-0.02c-0.014-0.054-0.029-0.108-0.043-0.162
	c-0.002-0.009-0.006-0.02-0.008-0.029c-0.016-0.058-0.031-0.115-0.047-0.173c0-0.002-0.001-0.004-0.001-0.006
	c-0.017-0.062-0.032-0.12-0.049-0.182c0-0.001-0.001-0.003-0.001-0.006c-0.1-0.372-0.201-0.738-0.304-1.103
	c-0.001-0.006-0.002-0.008-0.003-0.013c-0.016-0.057-0.031-0.111-0.047-0.167c-0.001-0.006-0.003-0.013-0.006-0.018
	c-0.016-0.054-0.03-0.107-0.046-0.16c-0.002-0.007-0.004-0.014-0.007-0.022c-0.016-0.053-0.03-0.105-0.046-0.16
	c-0.002-0.007-0.003-0.012-0.006-0.02c-0.016-0.053-0.031-0.108-0.047-0.161c-0.001-0.006-0.002-0.009-0.004-0.014
	c-0.017-0.057-0.032-0.111-0.049-0.167c-0.001-0.003-0.001-0.006-0.002-0.01c-0.228-0.772-0.461-1.522-0.699-2.248l0,0
	C378.283,213.347,374.913,212.125,371.342,211.346"/>
<path style="fill:#93BDAD;" d="M371.345,229.073v31.103c7.643-0.086,13.729-1.677,13.729-11.951l0,0
	C385.074,237.948,378.988,229.562,371.345,229.073"/>
<path style="fill:#5A949C;" d="M352.028,196.732c12.104,20.082,19.201,44.178,19.315,70.101c0.001,0.213,0.001,0.429,0.001,0.643
	l0,0l0,0v-7.299v-31.103V211.96c0-0.205,0-0.411-0.001-0.614l0,0c-0.014-3.632-0.167-7.226-0.451-10.779
	C367.629,199.191,362.044,197.73,352.028,196.732"/>
<path style="fill:#53757B;" d="M312.579,231.871c-4.204,0-7.61,3.408-7.61,7.62v22.51c0,0.138,0,0.283,0.01,0.421
	c8.519-8.76,12.841-18.107,15.005-24.701c0.139,0.565,0.21,1.162,0.21,1.769v22.51c0,4.211-3.406,7.617-7.618,7.619
	c0.001,0,0.002,0,0.003,0c4.213,0,7.619-3.406,7.619-7.619v-22.51c0-0.606-0.07-1.204-0.209-1.769
	c-0.329-1.391-1.044-2.643-2.027-3.626C316.592,232.726,314.684,231.871,312.579,231.871"/>
<path style="fill:#658384;" d="M321.185,195.498c-6.442,0-12.542,0.115-17.684,0.262c-5.625,3.174-9.422,9.207-9.422,16.126
	c5.11-5.111,11.807-7.666,18.504-7.666s13.395,2.555,18.506,7.666C331.089,204.771,327.074,198.594,321.185,195.498"/>
<path style="fill:#63858B;" d="M319.985,237.723c-2.164,6.594-6.486,15.94-15.005,24.701c-0.002,0.002-0.003,0.003-0.006,0.006
	c0.219,4.013,3.537,7.193,7.6,7.193c0.001,0,0.002,0,0.002,0c4.211-0.001,7.618-3.408,7.618-7.619v-22.51
	C320.194,238.885,320.124,238.288,319.985,237.723"/>
<path style="fill:#5A949C;" d="M371.347,278.7h-0.003l-1.387,0.741c-10.195,5.432-17.276,16.122-18.896,28.516l-0.155,1.189l0,0
	c-0.387,2.967-1.094,5.828-2.083,8.539c6.877-0.793,12.997-2.225,18.063-3.762c0.08-0.304,0.158-0.61,0.235-0.916
	c0.011-0.046,0.022-0.09,0.034-0.135c0.006-0.021,0.01-0.041,0.016-0.062c0.038-0.153,0.077-0.305,0.114-0.46
	c0.01-0.042,0.021-0.084,0.031-0.127c0-0.001,0.001-0.003,0.001-0.006c0.02-0.08,0.039-0.161,0.059-0.241
	c0.632-2.583,1.191-5.198,1.675-7.842c1.067-5.821,1.773-11.787,2.094-17.865C371.279,283.766,371.347,281.241,371.347,278.7
	L371.347,278.7"/>
<path style="fill:#545049;" d="M256.003,84.283c0,0-72.303,27.291-72.303,83.717c-14.845,13.235-26.681,30.467-34.142,50.208
	c-2.931,1.554-5.929,2.953-8.905,4.208v-10.459c0-40.215,16.799-76.079,43.047-99.473C203.475,94.843,228.623,84.283,256.003,84.283
	z"/>
<g>
	<path style="fill:#386D8E;" d="M168.776,195.985c0,0-28.668,33.065-6.847,121.701l-32.932-11.095l-6.173-33.476l6.556-58.167
		l10.475-14.383L168.776,195.985z"/>
	<path style="fill:#386D8E;" d="M343.221,195.985c0,0,28.669,33.065,6.847,121.701L383,306.591l6.173-33.476l-6.556-58.167
		l-10.475-14.383L343.221,195.985z"/>
</g>
<g>
	<path style="fill:#518EBC;" d="M392.628,244.945c-1.299-13.279-4.731-36.818-13.247-45.334c-5.02-5.019-15.544-9.66-58.169-9.66
		c-10.294,0-19.719,0.289-25.815,0.533h-78.8c-6.094-0.244-15.521-0.533-25.815-0.533c-42.625,0-53.149,4.641-58.169,9.66
		c-8.505,8.516-11.947,32.055-13.235,45.334c-1.033,10.559-2.787,37.207,3.064,56.637c2.121,7.039,7.472,12.78,14.312,15.367
		c8.384,3.164,21.697,6.928,37.541,6.928c8.338,0,16.51-1.066,24.271-3.187l1.61-0.433l1.376-0.944
		c1.4-0.955,30.546-21.262,44.668-67.307c1.321-4.308,5.274-7.261,9.782-7.261c2.244,0,4.363,0.733,6.074,2.021
		c1.721,1.266,3.03,3.087,3.697,5.241c14.123,46.045,43.269,66.352,44.678,67.307l1.377,0.944l1.599,0.433
		c7.76,2.121,15.933,3.187,24.281,3.187c15.833,0,29.157-3.764,37.53-6.928c6.851-2.587,12.202-8.327,14.312-15.367
		C395.404,282.153,393.649,255.505,392.628,244.945z M241.392,229.101c-9.67,57.636-45.455,81.952-45.455,81.952
		c-23.794,6.484-45.623,0.333-55.649-3.453c-3.998-1.51-7.039-4.808-8.272-8.894c-8.216-27.28-1.521-82.829,7.672-92.023
		c8.171-8.183,58.513-6.939,76.512-6.218c4.086,0.167,7.95,1.865,10.848,4.752l9.783,9.782
		C240.516,218.698,242.247,223.949,241.392,229.101z M379.992,298.707c-1.231,4.086-4.285,7.384-8.283,8.894
		c-10.026,3.786-31.844,9.937-55.649,3.453c0,0-35.784-24.316-45.445-81.952c-0.865-5.152,0.866-10.404,4.563-14.101l9.771-9.782
		c2.897-2.887,6.762-4.586,10.848-4.752c17.999-0.722,68.341-1.965,76.523,6.218C381.513,215.877,388.197,271.427,379.992,298.707z"
		/>
	<circle style="fill:#518EBC;" cx="256.002" cy="349.637" r="33.598"/>
	<path style="fill:#518EBC;" d="M385.388,418.254v58.68c-16,9.393-33.098,17.088-51.074,22.872v-99.517
		c0-1.221,0.39-2.321,1.021-3.209c1.454-2.043,4.241-2.998,6.806-1.854l39.971,17.965
		C384.112,414.08,385.388,416.068,385.388,418.254z"/>
	<path style="fill:#518EBC;" d="M178.504,400.29v99.761c-17.965-5.707-35.075-13.335-51.074-22.661v-59.136
		c0-2.187,1.276-4.175,3.275-5.063l39.982-17.965c2.631-1.177,5.519-0.133,6.928,2.054
		C178.171,398.124,178.504,399.158,178.504,400.29z"/>
</g>
<path style="fill:#386D8E;" d="M432.809,266.719v55.616c0,18.109-14.745,32.854-32.854,32.854h-132.56v-11.103h132.561
	c11.991,0,21.751-9.76,21.751-21.751v-55.616c0-11.991-9.76-21.751-21.751-21.751h-7.329v-0.022
	c-0.322-3.209-0.755-7.028-1.355-11.081h8.683C418.064,233.864,432.809,248.609,432.809,266.719z"/>
<circle style="fill:#68635B;" cx="256.002" cy="349.637" r="20.197"/>
<g>
</g>
<g>
</g>
<g>
</g>
<g>
</g>
<g>
</g>
<g>
</g>
<g>
</g>
<g>
</g>
<g>
</g>
<g>
</g>
<g>
</g>
<g>
</g>
<g>
</g>
<g>
</g>
<g>
</g>
</svg>
